<?xml version="1.0" encoding="UTF-8" standalone="no"?>
<!DOCTYPE svg PUBLIC "-//W3C//DTD SVG 1.1//EN"
 "http://www.w3.org/Graphics/SVG/1.1/DTD/svg11.dtd">
<!-- Generated by graphviz version 14.1.2 (20260124.0452)
 -->
<!-- Title: G Pages: 1 -->
<svg width="576pt" height="456pt"
 viewBox="0.00 0.00 576.00 456.00" xmlns="http://www.w3.org/2000/svg" xmlns:xlink="http://www.w3.org/1999/xlink">
<g id="graph0" class="graph" transform="scale(1 1) rotate(0) translate(21.6 434.85)">
<title>G</title>
<polygon fill="#fafaf7" stroke="none" points="-21.6,21.6 -21.6,-434.85 554.85,-434.85 554.85,21.6 -21.6,21.6"/>
<text xml:space="preserve" text-anchor="middle" x="266.62" y="-390.25" font-family="Times,serif" font-size="20.00">局部支撑补充后 · Rule&#45;comb 上下文 / effect 视图</text>
<!-- c0 -->
<g id="node1" class="node">
<title>c0</title>
<path fill="#edf0fa" stroke="#62706f" d="M57.25,-308C57.25,-308 12,-308 12,-308 6,-308 0,-302 0,-296 0,-296 0,-284 0,-284 0,-278 6,-272 12,-272 12,-272 57.25,-272 57.25,-272 63.25,-272 69.25,-278 69.25,-284 69.25,-284 69.25,-296 69.25,-296 69.25,-302 63.25,-308 57.25,-308"/>
<text xml:space="preserve" text-anchor="middle" x="34.62" y="-285.73" font-family="Arial" font-size="12.00">C0 · Entry</text>
</g>
<!-- e0_given_0 -->
<g id="node2" class="node">
<title>e0_given_0</title>
<polygon fill="#edf0fa" stroke="#62706f" points="203.5,-376 155.5,-376 155.5,-340 209.5,-340 209.5,-370 203.5,-376"/>
<polyline fill="none" stroke="#62706f" points="203.5,-376 203.5,-370"/>
<polyline fill="none" stroke="#62706f" points="209.5,-370 203.5,-370"/>
<text xml:space="preserve" text-anchor="middle" x="182.5" y="-353.73" font-family="Arial" font-size="12.00">P(0)</text>
</g>
<!-- c0&#45;&gt;e0_given_0 -->
<g id="edge1" class="edge">
<title>c0&#45;&gt;e0_given_0</title>
<path fill="none" stroke="#637577" stroke-dasharray="1,5" d="M69.46,-305.77C92.08,-316.32 121.84,-330.19 145,-340.98"/>
<polygon fill="#637577" stroke="#637577" points="143.21,-344.01 153.75,-345.07 146.17,-337.67 143.21,-344.01"/>
<text xml:space="preserve" text-anchor="middle" x="109.88" y="-330.57" font-family="Arial" font-size="10.00">given</text>
</g>
<!-- e0_given_1 -->
<g id="node3" class="node">
<title>e0_given_1</title>
<polygon fill="#edf0fa" stroke="#62706f" points="203.5,-308 155.5,-308 155.5,-272 209.5,-272 209.5,-302 203.5,-308"/>
<polyline fill="none" stroke="#62706f" points="203.5,-308 203.5,-302"/>
<polyline fill="none" stroke="#62706f" points="209.5,-302 203.5,-302"/>
<text xml:space="preserve" text-anchor="middle" x="182.5" y="-285.73" font-family="Arial" font-size="12.00">Q(1)</text>
</g>
<!-- c0&#45;&gt;e0_given_1 -->
<g id="edge2" class="edge">
<title>c0&#45;&gt;e0_given_1</title>
<path fill="none" stroke="#637577" stroke-dasharray="1,5" d="M69.46,-290C91.68,-290 120.77,-290 143.74,-290"/>
<polygon fill="#637577" stroke="#637577" points="143.61,-293.5 153.61,-290 143.61,-286.5 143.61,-293.5"/>
<text xml:space="preserve" text-anchor="middle" x="109.88" y="-292.5" font-family="Arial" font-size="10.00">given</text>
</g>
<!-- c2 -->
<g id="node6" class="node">
<title>c2</title>
<path fill="#edf0fa" stroke="#62706f" d="M202.5,-240C202.5,-240 162.5,-240 162.5,-240 156.5,-240 150.5,-234 150.5,-228 150.5,-228 150.5,-216 150.5,-216 150.5,-210 156.5,-204 162.5,-204 162.5,-204 202.5,-204 202.5,-204 208.5,-204 214.5,-210 214.5,-216 214.5,-216 214.5,-228 214.5,-228 214.5,-234 208.5,-240 202.5,-240"/>
<text xml:space="preserve" text-anchor="middle" x="182.5" y="-217.72" font-family="Arial" font-size="12.00">C2 · Join</text>
</g>
<!-- c0&#45;&gt;c2 -->
<g id="edge4" class="edge">
<title>c0&#45;&gt;c2</title>
<path fill="none" stroke="#637577" d="M69.46,-274.23C90.53,-264.41 117.78,-251.7 140.13,-241.28"/>
<polygon fill="#637577" stroke="#637577" points="141.38,-244.56 148.97,-237.16 138.43,-238.22 141.38,-244.56"/>
<text xml:space="preserve" text-anchor="middle" x="109.88" y="-262.57" font-family="Arial" font-size="10.00">ctx 0</text>
</g>
<!-- c1 -->
<g id="node4" class="node">
<title>c1</title>
<path fill="#edf0fa" stroke="#62706f" d="M57.25,-71C57.25,-71 12,-71 12,-71 6,-71 0,-65 0,-59 0,-59 0,-47 0,-47 0,-41 6,-35 12,-35 12,-35 57.25,-35 57.25,-35 63.25,-35 69.25,-41 69.25,-47 69.25,-47 69.25,-59 69.25,-59 69.25,-65 63.25,-71 57.25,-71"/>
<text xml:space="preserve" text-anchor="middle" x="34.62" y="-48.73" font-family="Arial" font-size="12.00">C1 · Entry</text>
</g>
<!-- e1_given_0 -->
<g id="node5" class="node">
<title>e1_given_0</title>
<polygon fill="#edf0fa" stroke="#62706f" points="203.5,-36 155.5,-36 155.5,0 209.5,0 209.5,-30 203.5,-36"/>
<polyline fill="none" stroke="#62706f" points="203.5,-36 203.5,-30"/>
<polyline fill="none" stroke="#62706f" points="209.5,-30 203.5,-30"/>
<text xml:space="preserve" text-anchor="middle" x="182.5" y="-13.72" font-family="Arial" font-size="12.00">Q(1)</text>
</g>
<!-- c1&#45;&gt;e1_given_0 -->
<g id="edge3" class="edge">
<title>c1&#45;&gt;e1_given_0</title>
<path fill="none" stroke="#637577" stroke-dasharray="1,5" d="M69.46,-44.88C91.78,-39.53 121.04,-32.51 144.06,-26.98"/>
<polygon fill="#637577" stroke="#637577" points="144.75,-30.42 153.65,-24.68 143.11,-23.61 144.75,-30.42"/>
<text xml:space="preserve" text-anchor="middle" x="109.88" y="-40.1" font-family="Arial" font-size="10.00">given</text>
</g>
<!-- c1&#45;&gt;c2 -->
<g id="edge5" class="edge">
<title>c1&#45;&gt;c2</title>
<path fill="none" stroke="#637577" d="M50.67,-71.07C72.43,-97.13 114.09,-146.66 150.5,-188 152.63,-190.42 154.86,-192.91 157.1,-195.41"/>
<polygon fill="#637577" stroke="#637577" points="154.33,-197.57 163.64,-202.63 159.52,-192.87 154.33,-197.57"/>
<text xml:space="preserve" text-anchor="middle" x="109.88" y="-153.76" font-family="Arial" font-size="10.00">ctx 1</text>
</g>
<!-- c3 -->
<g id="node7" class="node">
<title>c3</title>
<path fill="#dcefe5" stroke="#62706f" d="M369.5,-172.25C369.5,-172.25 319,-172.25 319,-172.25 313,-172.25 307,-166.25 307,-160.25 307,-160.25 307,-147.75 307,-147.75 307,-141.75 313,-135.75 319,-135.75 319,-135.75 369.5,-135.75 369.5,-135.75 375.5,-135.75 381.5,-141.75 381.5,-147.75 381.5,-147.75 381.5,-160.25 381.5,-160.25 381.5,-166.25 375.5,-172.25 369.5,-172.25"/>
<text xml:space="preserve" text-anchor="middle" x="344.25" y="-156.85" font-family="Arial" font-size="12.00">C3 · R</text>
<text xml:space="preserve" text-anchor="middle" x="344.25" y="-142.6" font-family="Arial" font-size="12.00">v0=0, v1=1</text>
</g>
<!-- c2&#45;&gt;c3 -->
<g id="edge6" class="edge">
<title>c2&#45;&gt;c3</title>
<path fill="none" stroke="#637577" d="M214.68,-208.73C237.82,-198.88 269.79,-185.27 296.05,-174.09"/>
<polygon fill="#637577" stroke="#637577" points="297.33,-177.35 305.16,-170.22 294.58,-170.91 297.33,-177.35"/>
<text xml:space="preserve" text-anchor="middle" x="260.75" y="-198.59" font-family="Arial" font-size="10.00">ctx 0</text>
</g>
<!-- e3_produces_0 -->
<g id="node10" class="node">
<title>e3_produces_0</title>
<polygon fill="#edf0fa" stroke="#62706f" points="527.25,-172 479.25,-172 479.25,-136 533.25,-136 533.25,-166 527.25,-172"/>
<polyline fill="none" stroke="#62706f" points="527.25,-172 527.25,-166"/>
<polyline fill="none" stroke="#62706f" points="533.25,-166 527.25,-166"/>
<text xml:space="preserve" text-anchor="middle" x="506.25" y="-149.72" font-family="Arial" font-size="12.00">T(1)</text>
</g>
<!-- c3&#45;&gt;e3_produces_0 -->
<g id="edge9" class="edge">
<title>c3&#45;&gt;e3_produces_0</title>
<path fill="none" stroke="#637577" stroke-dasharray="1,5" d="M381.96,-154C407.72,-154 442.05,-154 467.95,-154"/>
<polygon fill="#637577" stroke="#637577" points="467.68,-157.5 477.67,-154 467.67,-150.5 467.68,-157.5"/>
<text xml:space="preserve" text-anchor="middle" x="430.38" y="-156.5" font-family="Arial" font-size="10.00">produces</text>
</g>
<!-- e3_requires_0 -->
<g id="node8" class="node">
<title>e3_requires_0</title>
<polygon fill="#edf0fa" stroke="#62706f" points="203.5,-172 155.5,-172 155.5,-136 209.5,-136 209.5,-166 203.5,-172"/>
<polyline fill="none" stroke="#62706f" points="203.5,-172 203.5,-166"/>
<polyline fill="none" stroke="#62706f" points="209.5,-166 203.5,-166"/>
<text xml:space="preserve" text-anchor="middle" x="182.5" y="-149.72" font-family="Arial" font-size="12.00">P(0)</text>
</g>
<!-- e3_requires_0&#45;&gt;c3 -->
<g id="edge7" class="edge">
<title>e3_requires_0&#45;&gt;c3</title>
<path fill="none" stroke="#637577" stroke-dasharray="5,2" d="M209.88,-154C233.09,-154 267.46,-154 295.49,-154"/>
<polygon fill="#637577" stroke="#637577" points="295.16,-157.5 305.16,-154 295.16,-150.5 295.16,-157.5"/>
<text xml:space="preserve" text-anchor="middle" x="260.75" y="-156.5" font-family="Arial" font-size="10.00">requires</text>
</g>
<!-- e3_requires_1 -->
<g id="node9" class="node">
<title>e3_requires_1</title>
<polygon fill="#edf0fa" stroke="#62706f" points="203.5,-104 155.5,-104 155.5,-68 209.5,-68 209.5,-98 203.5,-104"/>
<polyline fill="none" stroke="#62706f" points="203.5,-104 203.5,-98"/>
<polyline fill="none" stroke="#62706f" points="209.5,-98 203.5,-98"/>
<text xml:space="preserve" text-anchor="middle" x="182.5" y="-81.72" font-family="Arial" font-size="12.00">Q(1)</text>
</g>
<!-- e3_requires_1&#45;&gt;c3 -->
<g id="edge8" class="edge">
<title>e3_requires_1&#45;&gt;c3</title>
<path fill="none" stroke="#637577" stroke-dasharray="5,2" d="M209.88,-97.23C233.3,-107.2 268.07,-122 296.23,-133.99"/>
<polygon fill="#637577" stroke="#637577" points="294.7,-137.14 305.28,-137.84 297.45,-130.7 294.7,-137.14"/>
<text xml:space="preserve" text-anchor="middle" x="260.75" y="-128.59" font-family="Arial" font-size="10.00">requires</text>
</g>
</g>
</svg>
