<?xml version="1.0" encoding="UTF-8" standalone="no"?>
<!DOCTYPE svg PUBLIC "-//W3C//DTD SVG 1.1//EN"
 "http://www.w3.org/Graphics/SVG/1.1/DTD/svg11.dtd">
<!-- Generated by graphviz version 14.1.2 (20260124.0452)
 -->
<!-- Title: G Pages: 1 -->
<svg width="886pt" height="340pt"
 viewBox="0.00 0.00 886.00 340.00" xmlns="http://www.w3.org/2000/svg" xmlns:xlink="http://www.w3.org/1999/xlink">
<g id="graph0" class="graph" transform="scale(1 1) rotate(0) translate(4 336)">
<title>G</title>
<polygon fill="#fafaf7" stroke="none" points="-4,4 -4,-336 882,-336 882,4 -4,4"/>
<g id="clust1" class="cluster">
<title>cluster_templates</title>
<polygon fill="#fafaf7" stroke="#7392b3" points="406.5,-155 406.5,-235 870,-235 870,-155 406.5,-155"/>
<text xml:space="preserve" text-anchor="middle" x="638.25" y="-217.7" font-family="Times,serif" font-size="14.00">Tier&#45;1 shared rule&#45;comb templates</text>
</g>
<g id="clust2" class="cluster">
<title>cluster_instances</title>
<polygon fill="#fafaf7" stroke="#7aa487" points="0,-8 0,-324 321.25,-324 321.25,-8 0,-8"/>
<text xml:space="preserve" text-anchor="middle" x="160.62" y="-306.7" font-family="Times,serif" font-size="14.00">Concrete occurrences / evidence (not template children)</text>
</g>
<!-- Comb&#45;0 -->
<g id="node1" class="node">
<title>Comb&#45;0</title>
<path fill="#ddeafa" stroke="black" d="M480,-202C480,-202 426.5,-202 426.5,-202 420.5,-202 414.5,-196 414.5,-190 414.5,-190 414.5,-178 414.5,-178 414.5,-172 420.5,-166 426.5,-166 426.5,-166 480,-166 480,-166 486,-166 492,-172 492,-178 492,-178 492,-190 492,-190 492,-196 486,-202 480,-202"/>
<text xml:space="preserve" text-anchor="middle" x="453.25" y="-178.57" font-family="Arial" font-size="14.00">Basic R10</text>
</g>
<!-- Comb&#45;10 -->
<g id="node2" class="node">
<title>Comb&#45;10</title>
<path fill="#ddeafa" stroke="black" d="M850,-202.75C850,-202.75 589.5,-202.75 589.5,-202.75 583.5,-202.75 577.5,-196.75 577.5,-190.75 577.5,-190.75 577.5,-175.25 577.5,-175.25 577.5,-169.25 583.5,-163.25 589.5,-163.25 589.5,-163.25 850,-163.25 850,-163.25 856,-163.25 862,-169.25 862,-175.25 862,-175.25 862,-190.75 862,-190.75 862,-196.75 856,-202.75 850,-202.75"/>
<text xml:space="preserve" text-anchor="middle" x="719.75" y="-185.45" font-family="Arial" font-size="14.00">CoarseComb R15</text>
<text xml:space="preserve" text-anchor="middle" x="719.75" y="-169.7" font-family="Arial" font-size="14.00">(parent[0].out[0], parent[0].out[1], external[0])</text>
</g>
<!-- Comb&#45;0&#45;&gt;Comb&#45;10 -->
<g id="edge1" class="edge">
<title>Comb&#45;0&#45;&gt;Comb&#45;10</title>
<path fill="none" stroke="black" d="M492.43,-183.86C512.48,-183.78 538.52,-183.68 565.77,-183.58"/>
<polygon fill="black" stroke="black" points="565.58,-187.08 575.57,-183.54 565.56,-180.08 565.58,-187.08"/>
<text xml:space="preserve" text-anchor="middle" x="534.75" y="-186.23" font-family="Arial" font-size="14.00">parent 0</text>
</g>
<!-- Instance&#45;11 -->
<g id="node3" class="node">
<title>Instance&#45;11</title>
<path fill="#e1f0e5" stroke="black" d="M205.25,-291.75C205.25,-291.75 115,-291.75 115,-291.75 109,-291.75 103,-285.75 103,-279.75 103,-279.75 103,-248.25 103,-248.25 103,-242.25 109,-236.25 115,-236.25 115,-236.25 205.25,-236.25 205.25,-236.25 211.25,-236.25 217.25,-242.25 217.25,-248.25 217.25,-248.25 217.25,-279.75 217.25,-279.75 217.25,-285.75 211.25,-291.75 205.25,-291.75"/>
<text xml:space="preserve" text-anchor="middle" x="160.12" y="-274.45" font-family="Arial" font-size="14.00">Occurrence 10</text>
<text xml:space="preserve" text-anchor="middle" x="160.12" y="-242.7" font-family="Arial" font-size="14.00">2 scoped effects</text>
</g>
<!-- Instance&#45;11&#45;&gt;Comb&#45;0 -->
<g id="edge2" class="edge">
<title>Instance&#45;11&#45;&gt;Comb&#45;0</title>
<path fill="none" stroke="black" stroke-dasharray="5,2" d="M217.51,-252.84C265.66,-242.67 336.46,-226.16 396.5,-206 398.73,-205.25 401.01,-204.46 403.3,-203.64"/>
<polygon fill="black" stroke="black" points="404.46,-206.94 412.64,-200.2 402.04,-200.38 404.46,-206.94"/>
<text xml:space="preserve" text-anchor="middle" x="363.88" y="-227.65" font-family="Arial" font-size="14.00">instance of</text>
</g>
<!-- Instance&#45;12 -->
<g id="node4" class="node">
<title>Instance&#45;12</title>
<path fill="#e1f0e5" stroke="black" d="M205.25,-217.75C205.25,-217.75 115,-217.75 115,-217.75 109,-217.75 103,-211.75 103,-205.75 103,-205.75 103,-174.25 103,-174.25 103,-168.25 109,-162.25 115,-162.25 115,-162.25 205.25,-162.25 205.25,-162.25 211.25,-162.25 217.25,-168.25 217.25,-174.25 217.25,-174.25 217.25,-205.75 217.25,-205.75 217.25,-211.75 211.25,-217.75 205.25,-217.75"/>
<text xml:space="preserve" text-anchor="middle" x="160.12" y="-200.45" font-family="Arial" font-size="14.00">Occurrence 20</text>
<text xml:space="preserve" text-anchor="middle" x="160.12" y="-168.7" font-family="Arial" font-size="14.00">2 scoped effects</text>
</g>
<!-- Instance&#45;12&#45;&gt;Comb&#45;0 -->
<g id="edge3" class="edge">
<title>Instance&#45;12&#45;&gt;Comb&#45;0</title>
<path fill="none" stroke="black" stroke-dasharray="5,2" d="M217.6,-188.84C271.29,-187.73 351.26,-186.08 402.58,-185.02"/>
<polygon fill="black" stroke="black" points="402.58,-188.52 412.51,-184.82 402.44,-181.53 402.58,-188.52"/>
<text xml:space="preserve" text-anchor="middle" x="363.88" y="-188.91" font-family="Arial" font-size="14.00">instance of</text>
</g>
<!-- Instance&#45;13 -->
<g id="node5" class="node">
<title>Instance&#45;13</title>
<path fill="#e1f0e5" stroke="black" d="M205.25,-144.62C205.25,-144.62 115,-144.62 115,-144.62 109,-144.62 103,-138.62 103,-132.62 103,-132.62 103,-101.38 103,-101.38 103,-95.38 109,-89.38 115,-89.38 115,-89.38 205.25,-89.38 205.25,-89.38 211.25,-89.38 217.25,-95.38 217.25,-101.38 217.25,-101.38 217.25,-132.62 217.25,-132.62 217.25,-138.62 211.25,-144.62 205.25,-144.62"/>
<text xml:space="preserve" text-anchor="middle" x="160.12" y="-127.33" font-family="Arial" font-size="14.00">Occurrence 11</text>
<text xml:space="preserve" text-anchor="middle" x="160.12" y="-111.58" font-family="Arial" font-size="14.00">x 2+3 dx </text>
<text xml:space="preserve" text-anchor="middle" x="160.12" y="-95.83" font-family="Arial" font-size="14.00">3 scoped effects</text>
</g>
<!-- Instance&#45;13&#45;&gt;Comb&#45;10 -->
<g id="edge4" class="edge">
<title>Instance&#45;13&#45;&gt;Comb&#45;10</title>
<path fill="none" stroke="black" stroke-dasharray="5,2" d="M217.51,-119.26C283.52,-122.34 396.02,-128.93 492,-141.25 531.03,-146.26 573.51,-153.58 611.05,-160.69"/>
<polygon fill="black" stroke="black" points="610.05,-164.06 620.53,-162.5 611.36,-157.19 610.05,-164.06"/>
<text xml:space="preserve" text-anchor="middle" x="453.25" y="-143.7" font-family="Arial" font-size="14.00">instance of</text>
</g>
<!-- Instance&#45;14 -->
<g id="node6" class="node">
<title>Instance&#45;14</title>
<path fill="#e1f0e5" stroke="black" d="M205.25,-71.62C205.25,-71.62 115,-71.62 115,-71.62 109,-71.62 103,-65.62 103,-59.62 103,-59.62 103,-28.38 103,-28.38 103,-22.38 109,-16.38 115,-16.38 115,-16.38 205.25,-16.38 205.25,-16.38 211.25,-16.38 217.25,-22.38 217.25,-28.38 217.25,-28.38 217.25,-59.62 217.25,-59.62 217.25,-65.62 211.25,-71.62 205.25,-71.62"/>
<text xml:space="preserve" text-anchor="middle" x="160.12" y="-54.33" font-family="Arial" font-size="14.00">Occurrence 21</text>
<text xml:space="preserve" text-anchor="middle" x="160.12" y="-38.58" font-family="Arial" font-size="14.00">y 4+5 dy </text>
<text xml:space="preserve" text-anchor="middle" x="160.12" y="-22.82" font-family="Arial" font-size="14.00">3 scoped effects</text>
</g>
<!-- Instance&#45;14&#45;&gt;Comb&#45;10 -->
<g id="edge5" class="edge">
<title>Instance&#45;14&#45;&gt;Comb&#45;10</title>
<path fill="none" stroke="black" stroke-dasharray="5,2" d="M217.72,-53.91C283.92,-65.9 396.6,-87.59 492,-112.25 545.11,-125.98 604.26,-144.54 648.82,-159.21"/>
<polygon fill="black" stroke="black" points="647.51,-162.46 658.1,-162.28 649.7,-155.82 647.51,-162.46"/>
<text xml:space="preserve" text-anchor="middle" x="453.25" y="-114.7" font-family="Arial" font-size="14.00">instance of</text>
</g>
</g>
</svg>
